<svg width="0" height="0" class="hidden">
  <symbol xmlns="http://www.w3.org/2000/svg" id="arr">
    <title>background</title>
    <path fill="none" d="M-1-1h72v37H-1z"></path>
    <title>Layer 1</title>
    <path d="M-1.312 17.875l71.499-.125M51.312-.5l18.625 18.375M51.155 36.344l18.44-18.562" stroke="#000" stroke-linecap="undefined" stroke-linejoin="undefined" fill-opacity="null" stroke-width="1.5" fill="none"></path>
  </symbol>
  <symbol viewBox="0 0 512 512" xmlns="http://www.w3.org/2000/svg" id="automation">
    <path d="M79.6 259.719l26.717-12.7 18.806 7.79 9.912 27.872a8 8 0 0 0 7.532 5.319h34.866a8 8 0 0 0 7.537-5.319l9.912-27.872 18.806-7.79 26.717 12.7a8.006 8.006 0 0 0 9.092-1.569l24.653-24.65a8 8 0 0 0 1.569-9.092l-12.7-26.717 7.79-18.806 27.872-9.912a8 8 0 0 0 5.319-7.54v-34.866a8 8 0 0 0-5.319-7.537l-27.872-9.912-7.79-18.806 12.7-26.717a8 8 0 0 0-1.569-9.095L249.5 29.85a8 8 0 0 0-9.092-1.569l-26.717 12.7-18.806-7.79-9.915-27.872A8 8 0 0 0 177.433 0h-34.866a8 8 0 0 0-7.537 5.319l-9.912 27.872-18.806 7.79-26.712-12.7a8 8 0 0 0-9.1 1.569L45.85 54.5a8 8 0 0 0-1.569 9.1l12.7 26.717-7.79 18.806-27.872 9.907A8 8 0 0 0 16 126.567v34.866a8 8 0 0 0 5.319 7.537l27.872 9.912 7.79 18.806-12.7 26.717a8 8 0 0 0 1.569 9.095l24.65 24.65a8.006 8.006 0 0 0 9.1 1.569zm-6.476-64.869l-10.512-25.376A7.994 7.994 0 0 0 57.9 165L32 155.787v-23.574L57.9 123a7.994 7.994 0 0 0 4.71-4.476L73.124 93.15a8 8 0 0 0-.165-6.5l-11.8-24.829 16.666-16.665 24.829 11.8a7.992 7.992 0 0 0 6.5.165l25.376-10.512A7.994 7.994 0 0 0 139 41.9l9.213-25.9h23.574L181 41.9a7.994 7.994 0 0 0 4.476 4.71l25.374 10.514a7.992 7.992 0 0 0 6.5-.165l24.829-11.8 16.669 16.669-11.8 24.829a8 8 0 0 0-.165 6.5l10.512 25.376A7.994 7.994 0 0 0 262.1 123l25.9 9.211v23.574L262.1 165a7.994 7.994 0 0 0-4.71 4.476l-10.514 25.374a8 8 0 0 0 .165 6.5l11.8 24.829-16.669 16.669-24.829-11.8a7.992 7.992 0 0 0-6.5-.165l-25.376 10.512A7.994 7.994 0 0 0 181 246.1l-9.213 25.9h-23.574L139 246.1a7.994 7.994 0 0 0-4.476-4.71l-25.374-10.514a7.992 7.992 0 0 0-6.5.165l-24.829 11.8-16.665-16.666 11.8-24.829a8 8 0 0 0 .168-6.496z"></path>
    <path d="M160 216a72 72 0 1 0-72-72 72.081 72.081 0 0 0 72 72zm0-128a56 56 0 1 1-56 56 56.063 56.063 0 0 1 56-56zm154.8 297.474l-10.51 25.376a8 8 0 0 0 .165 6.5l11.8 24.829-16.669 16.669-24.829-11.8a8 8 0 0 0-6.5-.165l-25.367 10.505a8 8 0 0 0-4.477 4.71L229.2 488h-23.571l-9.212-25.9a7.994 7.994 0 0 0-4.476-4.71l-25.376-10.512a7.992 7.992 0 0 0-6.5.165l-24.829 11.8-16.669-16.669 11.8-24.829a8 8 0 0 0 .165-6.5l-10.51-25.376a8 8 0 0 0-4.704-4.469l-25.9-9.21v-23.577l25.9-9.211a8 8 0 0 0 4.711-4.476l10.51-25.376a8 8 0 0 0-.165-6.5l-14.227-29.928L101.7 279.6l12.7 26.717-7.789 18.806-27.872 9.911a8 8 0 0 0-5.319 7.538v34.866a8 8 0 0 0 5.319 7.538l27.872 9.911 7.789 18.806-12.7 26.717a8 8 0 0 0 1.57 9.092l24.65 24.648a8 8 0 0 0 9.091 1.569l26.717-12.7 18.8 7.79 9.913 27.872a8 8 0 0 0 7.542 5.319h34.866a8 8 0 0 0 7.538-5.319l9.911-27.872 18.806-7.79 26.716 12.7a8 8 0 0 0 9.091-1.569l24.654-24.65a8 8 0 0 0 1.57-9.092l-12.7-26.717 9.15-22.091zM331.565 270.5l-24.654-24.65a8 8 0 0 0-9.091-1.569l-29.927 14.227 6.869 14.451 24.829-11.8 16.669 16.669-11.8 24.829a8 8 0 0 0-.165 6.5l9.076 21.912 14.781-6.124-7.714-18.626 12.7-26.717a8 8 0 0 0-1.573-9.102z"></path>
    <path d="M217.416 432a72 72 0 1 0-72-72 72.081 72.081 0 0 0 72 72zm0-128a56 56 0 1 1-56 56 56.063 56.063 0 0 1 56-56zm273.265-160.97l-27.872-9.912-7.79-18.806 12.7-26.717a8 8 0 0 0-1.569-9.095L441.5 53.85a8 8 0 0 0-9.092-1.569l-26.717 12.7-18.806-7.79-9.911-27.872A8 8 0 0 0 369.433 24h-34.866a8 8 0 0 0-7.538 5.319l-9.911 27.872-22.091 9.152 6.123 14.781 25.376-10.512A8 8 0 0 0 331 65.9l9.21-25.9h23.574L373 65.9a7.994 7.994 0 0 0 4.476 4.71l25.374 10.514a8 8 0 0 0 6.5-.165l24.829-11.8 16.669 16.669-11.8 24.829a8 8 0 0 0-.165 6.5l10.512 25.376A8 8 0 0 0 454.1 147l25.9 9.21v23.574L454.1 189a8 8 0 0 0-4.71 4.477l-10.514 25.373a8 8 0 0 0 .165 6.5l11.8 24.829-20.661 20.661 11.32 11.31 24.65-24.65a8 8 0 0 0 1.569-9.092l-12.7-26.717 7.79-18.806 27.872-9.911a8 8 0 0 0 5.319-7.541v-34.866a8 8 0 0 0-5.319-7.537z"></path>
    <path d="M352 224a55.792 55.792 0 0 1-51.932-35l-14.832 6a72 72 0 1 0 30.757-89.364l8.014 13.849A56 56 0 1 1 352 224zm90.745 80H416v-32a24 24 0 0 0-48 0v68.687l-5.372-5.374a24.971 24.971 0 0 0-35.315 35.315L368 411.313V424h-8a8 8 0 0 0-8 8v72h16v-64h96v64h16v-72a8 8 0 0 0-8-8h-8v-12.687l16.4-16.4A53.255 53.255 0 0 0 442.745 304zm26.343 79.6l-18.745 18.745A8 8 0 0 0 448 408v16h-64v-16a8 8 0 0 0-2.343-5.657l-43.029-43.03a8.97 8.97 0 1 1 12.685-12.685l19.03 19.029A8 8 0 0 0 384 360v-88a8 8 0 0 1 16 0v40a8 8 0 0 0 8 8h34.745a37.255 37.255 0 0 1 26.343 63.6z"></path>
    <path d="M432 456h16v16h-16z"></path>
  </symbol>
  <symbol xmlns="http://www.w3.org/2000/svg" id="btn_arr">
    <title>background</title>
    <path fill="none" d="M-1-1h53v17H-1z"></path>
    <title>Layer 1</title>
    <path d="M-20.437 7.625L51.062 7.5M32.187-10.75L50.812 7.625M32.03 26.094L50.47 7.532" stroke="#111" stroke-linecap="undefined" stroke-linejoin="undefined" fill-opacity="null" stroke-width="1.5" fill="none"></path>
  </symbol>
  <symbol xmlns="http://www.w3.org/2000/svg" id="btn_arr_sm">
    <title>background</title>
    <path fill="none" d="M-1-1h37v17H-1z"></path>
    <title>Layer 1</title>
    <path d="M-36.312 7.625L35.187 7.5M16.313-10.75L34.937 7.625M16.155 26.093l18.44-18.56" stroke="#fff600" stroke-linecap="undefined" stroke-linejoin="undefined" fill-opacity="null" stroke-width="1.5" fill="none"></path>
  </symbol>
  <symbol viewBox="0 0 24 24" xmlns="http://www.w3.org/2000/svg" id="facebook">
    <path d="M15.997 3.985h2.191V.169C17.81.117 16.51 0 14.996 0c-3.159 0-5.323 1.987-5.323 5.639V9H6.187v4.266h3.486V24h4.274V13.267h3.345l.531-4.266h-3.877V6.062c.001-1.233.333-2.077 2.051-2.077z"></path>
  </symbol>
  <symbol viewBox="0 0 24 24" xmlns="http://www.w3.org/2000/svg" id="instagram">
    <path d="M12.004 5.838a6.157 6.157 0 0 0-6.158 6.158 6.157 6.157 0 0 0 6.158 6.158 6.157 6.157 0 0 0 6.158-6.158 6.157 6.157 0 0 0-6.158-6.158zm0 10.155a3.996 3.996 0 1 1 3.997-3.997 3.995 3.995 0 0 1-3.997 3.997z"></path>
    <path d="M16.948.076c-2.208-.103-7.677-.098-9.887 0-1.942.091-3.655.56-5.036 1.941C-.283 4.325.012 7.435.012 11.996c0 4.668-.26 7.706 2.013 9.979 2.317 2.316 5.472 2.013 9.979 2.013 4.624 0 6.22.003 7.855-.63 2.223-.863 3.901-2.85 4.065-6.419.104-2.209.098-7.677 0-9.887-.198-4.213-2.459-6.768-6.976-6.976zm3.495 20.372c-1.513 1.513-3.612 1.378-8.468 1.378-5 0-7.005.074-8.468-1.393-1.685-1.677-1.38-4.37-1.38-8.453 0-5.525-.567-9.504 4.978-9.788 1.274-.045 1.649-.06 4.856-.06l.045.03c5.329 0 9.51-.558 9.761 4.986.057 1.265.07 1.645.07 4.847-.001 4.942.093 6.959-1.394 8.453z"></path>
    <circle cx="18.406" cy="5.595" r="1.439"></circle>
  </symbol>
  <symbol xmlns="http://www.w3.org/2000/svg" preserveAspectRatio="xMidYMid" id="mail">
    <title>background</title>
    <path fill="none" d="M-1-1h18v18H-1z"></path>
    <title>Layer 1</title>
    <path stroke="null" fill-rule="evenodd" d="M0 14.236V1.986h16v12.25H0zm14.375-.938l-4.5-4.468L8 10.674 6.093 8.798l-4.562 4.5h12.844zM.937 12.516l4.469-4.405L.937 3.705v8.811zM1.5 2.922L8 9.36l6.5-6.438h-13zm13.562.783l-4.531 4.468 4.531 4.438V3.705zm-2.312-30a2.04 2.04 0 0 1-.453.296c-.157.073-.349.11-.578.11H4.25c-.23 0-.422-.037-.579-.11a2.04 2.04 0 0 1-.453-.297 1.04 1.04 0 0 1-.312-.453 2.377 2.377 0 0 1-.125-.546l.031-13.188a.994.994 0 0 1 .094-.547c.083-.177.187-.328.312-.454a1.37 1.37 0 0 1 .453-.296c.177-.073.36-.11.548-.11h7.531c.187 0 .369.037.547.11.176.073.328.171.453.296.125.126.229.277.312.454.083.177.114.36.094.547l.031 13.188a2.43 2.43 0 0 1-.125.546 1.049 1.049 0 0 1-.312.453zm-.563-14.36a1.34 1.34 0 0 1-.109-.157.252.252 0 0 0-.141-.109.582.582 0 0 0-.187-.03H4.219a.588.588 0 0 0-.188.03.256.256 0 0 0-.141.11 1.474 1.474 0 0 1-.109.155.173.173 0 0 0-.031.173l-.031 1.406h8.531l-.032-1.406a.173.173 0 0 0-.031-.173zM3.719-38.14l.031 7.532h8.468l.032-7.532H3.719zm8.499 8.5H3.75l-.031 2.345c.02.061.041.12.062.171.02.052.057.105.109.156a.579.579 0 0 0 .141.11c.041.02.114.031.219.031h7.469a.55.55 0 0 0 .218-.03.579.579 0 0 0 .141-.11.467.467 0 0 0 .109-.157c.021-.052.042-.11.063-.17l-.032-2.346zm-3.89 1.72a1.6 1.6 0 0 1-.156.11.4.4 0 0 1-.375 0 .38.38 0 0 1-.157-.11 1.89 1.89 0 0 1-.093-.14.195.195 0 0 1-.016-.173.235.235 0 0 1 .016-.188.972.972 0 0 1 .093-.156.28.28 0 0 1 .157-.094.561.561 0 0 1 .375 0c.051.02.104.052.156.094a.247.247 0 0 1 .094.156c.01.063.025.126.046.188-.021.063-.036.12-.046.172a.249.249 0 0 1-.094.14z"
      fill="#008efc"></path>
  </symbol>
  <symbol viewBox="0 0 24 24" xmlns="http://www.w3.org/2000/svg" id="odnoklassniki">
    <path d="M4.721 12.881c-.613 1.205.083 1.781 1.671 2.765 1.35.834 3.215 1.139 4.413 1.261l-4.721 4.541c-1.374 1.317.838 3.43 2.211 2.141l3.717-3.585c1.423 1.369 2.787 2.681 3.717 3.59 1.374 1.294 3.585-.801 2.226-2.141-.102-.097-5.037-4.831-4.736-4.541 1.213-.122 3.05-.445 4.384-1.261l-.001-.001c1.588-.989 2.284-1.564 1.68-2.769-.365-.684-1.349-1.256-2.659-.267 0 0-1.769 1.355-4.622 1.355-2.854 0-4.622-1.355-4.622-1.355-1.309-.994-2.297-.417-2.658.267z"></path>
    <path d="M11.999 12.142c3.478 0 6.318-2.718 6.318-6.064 0-3.36-2.84-6.078-6.318-6.078C8.52 0 5.68 2.718 5.68 6.078c0 3.346 2.84 6.064 6.319 6.064zm0-9.063c1.709 0 3.103 1.341 3.103 2.999 0 1.644-1.394 2.985-3.103 2.985S8.896 7.722 8.896 6.078c-.001-1.659 1.393-2.999 3.103-2.999z"></path>
  </symbol>
  <symbol viewBox="0 -53 384 384" xmlns="http://www.w3.org/2000/svg" id="open-menu">
    <path d="M368 154.668H16c-8.832 0-16-7.168-16-16s7.168-16 16-16h352c8.832 0 16 7.168 16 16s-7.168 16-16 16zM368 32H16C7.168 32 0 24.832 0 16S7.168 0 16 0h352c8.832 0 16 7.168 16 16s-7.168 16-16 16zm0 245.332H16c-8.832 0-16-7.168-16-16s7.168-16 16-16h352c8.832 0 16 7.168 16 16s-7.168 16-16 16zm0 0"></path>
  </symbol>
  <symbol xmlns="http://www.w3.org/2000/svg" viewBox="0 0 937.5 937.5" id="payment">
    <path d="M781.25 165.531V78.125C781.195 35 746.25.055 703.125 0h-625C35 .055.055 35 0 78.125v343.75c.121 39.902 30.367 73.273 70.063 77.32l58.734 152.465c15.516 40.258 60.726 60.313 100.988 44.817l366.777-141.29c-25.343 66.2-18.132 140.461 19.461 200.551L625 770.094v151.781c0 8.633 6.992 15.625 15.625 15.625h281.25c8.633 0 15.625-6.992 15.625-15.625V406.113a204.484 204.484 0 0 0-59.863-144.023zm0 93.446l47.422 123.101c9.293 24.164-2.75 51.277-26.91 60.578l-27.106 10.469a78.145 78.145 0 0 0 6.594-31.25zm-750 162.898V78.125c0-25.883 20.992-46.875 46.875-46.875h625C729.008 31.25 750 52.242 750 78.125v99.313h-.137l.137.355v244.082a47.447 47.447 0 0 1-1.063 8.094l-143.125-143.14c-32.171-31.43-83.46-31.673-115.921-.571-32.47 31.12-34.418 82.37-4.391 115.847l61.016 66.645H78.125c-25.883 0-46.875-20.992-46.875-46.875zM231.422 500l-111.11 42.777L103.876 500zm-12.875 167.309c-24.156 9.312-51.285-2.73-60.594-26.887l-26.36-68.547L318.11 500v-.094h257.047l20.309 22.14zM906.25 906.25h-250v-125h250zm0-156.25H649.297l-6.777-10.828c-38.098-60.883-39.614-137.781-3.957-200.11a15.618 15.618 0 0 0-2.047-18.312L508.473 381.062c-19.094-20.898-18.02-53.207 2.422-72.78 20.449-19.579 52.773-19.259 72.82.71l248.988 248.93 22.094-22.094-57.813-57.812 16.032-6.25c40.226-15.52 60.273-60.692 44.797-100.942l-52.887-137.328 50.617 50.723a173.037 173.037 0 0 1 50.707 121.894zm0 0"></path>
    <path d="M178.125 218.75c22.438 0 40.625-18.188 40.625-40.625v-75c0-22.438-18.188-40.625-40.625-40.625h-75C80.687 62.5 62.5 80.688 62.5 103.125v75c0 22.438 18.188 40.625 40.625 40.625zM93.75 178.125V156.25H125V125H93.75v-21.875c0-5.176 4.2-9.375 9.375-9.375h75c5.176 0 9.375 4.2 9.375 9.375V125h-31.25v31.25h31.25v21.875c0 5.176-4.2 9.375-9.375 9.375h-75c-5.176 0-9.375-4.2-9.375-9.375zm-15.625 87.5h62.5v31.25h-62.5zm0 93.75h62.5v31.25h-62.5zm281.25 0h62.5v31.25h-62.5zm-187.5-93.75h62.5v31.25h-62.5zm93.75 0h62.5v31.25h-62.5zm93.75 0h62.5v31.25h-62.5zm296.875-187.5h31.25V125h-31.25zm-62.5 0H625V125h-31.25zm-62.5 0h31.25V125h-31.25zm-62.5 0H500V125h-31.25zM687.5 812.5h31.25v31.25H687.5zm0 0"></path>
  </symbol>
  <symbol xmlns="http://www.w3.org/2000/svg" viewBox="0 0 612 612" id="paypal">
    <path d="M554.307 146.548c-1.96-31.153-12.153-57.806-30.518-79.606-34.976-41.509-97.85-63.379-181.828-63.379C309.296 3.562 140.407 0 138.708 0h-.32c-6.795 0-12.717 4.562-14.212 11.231L10.92 516.528c-.971 4.319.078 8.702 2.844 12.157 2.757 3.446 6.95 5.314 11.367 5.314h75.101L86.53 594.035c-.99 4.319.039 8.933 2.806 12.399 2.757 3.475 6.95 5.564 11.387 5.564h189.41c6.97 0 12.979-4.96 14.289-11.823l23.745-123.497 88.706-.729c.437-.01.873-.028 1.319-.077 1.495-.146 150.406-16.9 180.081-190.051 12.784-74.623-15.494-116.557-43.966-139.273zM149.988 29.129c39.548.854 163.735 3.637 191.973 3.637 74.038 0 130.709 19.132 159.56 53.37 21.512 25.53 28.607 61.213 21.095 105.052-26.793 156.356-152.134 175.297-163.443 176.598L253.391 369h-.097c-6.96 0-12.94 2.912-14.289 9.746L213.794 505H43.323L149.988 29.129zm419.581 251.763c-25.22 147.173-143.252 164.666-153.687 165.927l-99.889.806c-6.932.059-12.863 5.08-14.174 11.895L278.096 583H118.992l11.113-49h95.668c6.96 0 12.94-4.78 14.28-11.614l25.2-128.114 94.53.695c.476 0 .98.008 1.466-.031 1.583-.155 158.735-16.95 190.07-199.788.52-3.028.971-6.016 1.369-8.98 17.94 23.634 23.627 55.364 16.881 94.724z"></path>
  </symbol>
  <symbol xmlns="http://www.w3.org/2000/svg" viewBox="0 0 384 384" id="pdf">
    <path d="M64 0v80H0v144h64v160h224l96-96V0H64zM16 208V96h240v112H16zm272 153.376V288h73.376L288 361.376zM368 272h-96v96H80V224h192V80H80V16h288v256z"></path>
    <path d="M90.848 130.864c-.64-2.464-1.696-4.656-3.168-6.576-1.472-1.92-3.392-3.472-5.808-4.656-2.416-1.184-5.36-1.776-8.88-1.776H48.8V186.4h13.824v-27.36h7.392c3.264 0 6.24-.448 8.928-1.264s4.976-2.08 6.864-3.744c1.888-1.648 3.36-3.792 4.416-6.416 1.056-2.624 1.584-5.696 1.584-9.216 0-2.56-.336-5.088-.96-7.536zm-15.408 15.52c-1.68 1.664-3.92 2.512-6.672 2.512h-6.144v-20.848h5.76c3.456 0 5.92.912 7.392 2.688 1.472 1.792 2.208 4.416 2.208 7.872 0 3.52-.848 6.112-2.544 7.776zm77.92-8.944c-.576-4.112-1.664-7.6-3.312-10.512-1.632-2.928-3.92-5.152-6.864-6.72-2.96-1.568-6.816-2.368-11.632-2.368h-22.656v68.544h21.824c4.608 0 8.416-.704 11.424-2.112 3.008-1.408 5.408-3.536 7.2-6.432 1.792-2.88 3.056-6.56 3.792-10.992.736-4.448 1.088-9.68 1.088-15.696 0-5.04-.288-9.616-.864-13.712zm-13.408 25.824c-.272 3.152-.848 5.68-1.728 7.6-.864 1.92-2.032 3.296-3.504 4.128-1.472.832-3.424 1.248-5.856 1.248h-6.144v-48.208h5.84c2.624 0 4.72.512 6.288 1.504 1.584.976 2.752 2.448 3.568 4.4.8 1.952 1.328 4.4 1.584 7.344.24 2.96.384 6.384.384 10.288 0 4.672-.144 8.576-.432 11.696zm71.28-34.08v-11.328h-38.304V186.4h13.824v-29.76h23.04v-11.328h-23.04v-16.128z"></path>
  </symbol>
  <symbol xmlns="http://www.w3.org/2000/svg" viewBox="0 0 512 512" id="phone">
    <path d="M298.667 25.6h-85.333a8.536 8.536 0 0 0-8.533 8.533 8.536 8.536 0 0 0 8.533 8.533h85.333a8.536 8.536 0 0 0 8.533-8.533 8.536 8.536 0 0 0-8.533-8.533zm59.733 0h-8.533a8.536 8.536 0 0 0-8.533 8.533 8.536 8.536 0 0 0 8.533 8.533h8.533a8.536 8.536 0 0 0 8.533-8.533A8.536 8.536 0 0 0 358.4 25.6zm-91.802 409.6H245.41c-12.979 0-23.543 10.564-23.543 23.543v4.122c0 12.979 10.564 23.535 23.535 23.535h21.188c12.979 0 23.543-10.556 23.543-23.535v-4.122c0-12.979-10.564-23.543-23.535-23.543zm6.469 27.665a6.475 6.475 0 0 1-6.468 6.468H245.41c-3.575 0-6.477-2.901-6.477-6.468v-4.122a6.48 6.48 0 0 1 6.477-6.477h21.18a6.478 6.478 0 0 1 6.477 6.477v4.122z"></path>
    <path d="M370.227 0H141.781c-17.007 0-30.848 13.841-30.848 30.848v450.304c0 17.007 13.841 30.848 30.848 30.848h228.437c17.007 0 30.848-13.841 30.848-30.839V30.848C401.067 13.841 387.226 0 370.227 0zM384 481.152c0 7.595-6.178 13.781-13.773 13.781H141.781c-7.603 0-13.781-6.187-13.781-13.773V30.848c0-7.595 6.178-13.781 13.781-13.781h228.437c7.603 0 13.781 6.187 13.781 13.781v450.304z"></path>
    <path d="M392.533 51.2H119.467a8.536 8.536 0 0 0-8.533 8.533v358.4a8.536 8.536 0 0 0 8.533 8.533h273.067a8.536 8.536 0 0 0 8.533-8.533v-358.4c0-4.71-3.823-8.533-8.534-8.533zM384 409.6H128V68.267h256V409.6z"></path>
  </symbol>
  <symbol xmlns="http://www.w3.org/2000/svg" preserveAspectRatio="xMidYMid" id="phone2">
    <title>background</title>
    <path fill="none" d="M-1-1h18v18H-1z"></path>
    <title>Layer 1</title>
    <path stroke="null" fill-rule="evenodd" d="M0 56.124V43.873h16v12.251H0zm14.375-.938l-4.5-4.468L8 52.562l-1.907-1.876-4.562 4.5h12.844zM.937 54.404l4.469-4.405-4.469-4.406v8.811zM1.5 44.81L8 51.248l6.5-6.438h-13zm13.562.783l-4.531 4.468 4.531 4.438v-8.906zM12.75 15.592a2.04 2.04 0 0 1-.453.297c-.157.073-.349.11-.578.11H4.25c-.23 0-.422-.037-.579-.11a2.04 2.04 0 0 1-.453-.297 1.04 1.04 0 0 1-.312-.453 2.377 2.377 0 0 1-.125-.546l.031-13.188a.994.994 0 0 1 .094-.547c.083-.177.187-.328.312-.454a1.37 1.37 0 0 1 .453-.296c.177-.073.36-.11.548-.11h7.531c.187 0 .369.037.547.11.176.073.328.171.453.296.125.126.229.277.312.454.083.177.114.359.094.547l.031 13.188a2.43 2.43 0 0 1-.125.546 1.049 1.049 0 0 1-.312.453zm-.563-14.36a1.34 1.34 0 0 1-.109-.156.252.252 0 0 0-.141-.109.582.582 0 0 0-.187-.031H4.219a.588.588 0 0 0-.188.031.256.256 0 0 0-.141.109 1.474 1.474 0 0 1-.109.156.173.173 0 0 0-.031.173l-.031 1.406h8.531l-.032-1.406a.173.173 0 0 0-.031-.173zM3.719 3.748l.031 7.532h8.468l.032-7.532H3.719zm8.499 8.5H3.75l-.031 2.345c.02.061.041.119.062.171.02.052.057.105.109.156a.579.579 0 0 0 .141.11c.041.02.114.031.219.031h7.469a.55.55 0 0 0 .218-.031.579.579 0 0 0 .141-.11.467.467 0 0 0 .109-.156c.021-.052.042-.11.063-.171l-.032-2.345zm-3.89 1.719a1.6 1.6 0 0 1-.156.11.4.4 0 0 1-.375 0 .38.38 0 0 1-.157-.11 1.89 1.89 0 0 1-.093-.14.195.195 0 0 1-.016-.172.235.235 0 0 1 .016-.188.972.972 0 0 1 .093-.156.28.28 0 0 1 .157-.094.561.561 0 0 1 .375 0c.051.02.104.052.156.094a.247.247 0 0 1 .094.156c.01.063.025.126.046.188-.021.063-.036.12-.046.172a.249.249 0 0 1-.094.14z"
      fill="#008efc"></path>
  </symbol>
  <symbol xmlns="http://www.w3.org/2000/svg" preserveAspectRatio="xMidYMid" viewBox="0 0 11 16" id="Pin">
    <path d="M5.187-.002a5.205 5.205 0 0 1 3.672 1.516 5.231 5.231 0 0 1 1.109 1.641 5.05 5.05 0 0 1 .407 2.031c0 1.021-.245 2.094-.735 3.219a23.893 23.893 0 0 1-1.609 3.093c-.584.938-1.13 1.724-1.641 2.359-.51.637-.797.985-.859 1.048l-.344.406-.343-.406c-.063-.063-.35-.411-.86-1.048a24.045 24.045 0 0 1-1.641-2.359A23.893 23.893 0 0 1 .734 8.405C.244 7.28 0 6.207 0 5.186c0-.729.135-1.406.406-2.031a5.248 5.248 0 0 1 1.109-1.641A5.198 5.198 0 0 1 5.187-.002zm0 13.845c.271-.334.646-.824 1.125-1.47.479-.645.948-1.374 1.407-2.187.457-.813.859-1.656 1.203-2.532.343-.875.515-1.698.515-2.468 0-.583-.114-1.135-.343-1.657a4.242 4.242 0 0 0-.922-1.343 4.638 4.638 0 0 0-1.344-.907A3.966 3.966 0 0 0 5.187.936c-.583 0-1.13.114-1.64.343-.511.23-.959.531-1.344.907a4.21 4.21 0 0 0-.922 1.343 4.079 4.079 0 0 0-.344 1.657c0 .77.172 1.593.516 2.468.344.876.745 1.719 1.203 2.532.458.813.927 1.542 1.406 2.187.479.646.854 1.136 1.125 1.47zm0-11.344c.396 0 .766.073 1.11.218.343.146.64.344.89.594a2.83 2.83 0 0 1 .813 2c0 .396-.074.76-.219 1.093a3.02 3.02 0 0 1-.594.891 2.66 2.66 0 0 1-.89.61 2.828 2.828 0 0 1-1.11.217c-.396 0-.765-.072-1.109-.217a2.654 2.654 0 0 1-.891-.61 3.02 3.02 0 0 1-.594-.891 2.69 2.69 0 0 1-.218-1.093 2.81 2.81 0 0 1 .812-2 2.824 2.824 0 0 1 2-.812zm0 4.688a1.877 1.877 0 0 0 1.735-1.158 1.89 1.89 0 0 0 .14-.718c0-.271-.047-.521-.14-.75a1.689 1.689 0 0 0-.407-.594 1.964 1.964 0 0 0-1.328-.531 1.964 1.964 0 0 0-1.328.531 1.686 1.686 0 0 0-.406.594 1.956 1.956 0 0 0-.141.75 1.872 1.872 0 0 0 1.875 1.876z"
      fill-rule="evenodd" fill="#008efc"></path>
  </symbol>
  <symbol viewBox="0 -47 512.002 512" xmlns="http://www.w3.org/2000/svg" id="twitter">
    <path d="M191.012 419.043c-22.14 0-44.93-1.793-67.856-5.387-40.379-6.336-81.254-27.457-92.82-33.781L0 363.289l32.844-10.8c35.902-11.805 57.742-19.13 84.777-30.598-27.07-13.11-47.933-36.692-57.976-67.176l-7.641-23.195 6.266.957A113.939 113.939 0 0 1 44 214.883c-12.934-19.645-19.781-43.649-18.324-64.219l1.437-20.246 12.121 4.695a113.316 113.316 0 0 1-10.98-30.777c-5.293-26.36-.863-54.363 12.476-78.852L51.29 6.102l14.12 16.96c44.66 53.649 101.227 85.473 168.363 94.79-2.742-18.903-.687-37.145 6.114-53.497 7.918-19.039 22.004-35.183 40.722-46.69 20.79-12.778 46-18.97 70.989-17.435 26.511 1.63 50.582 11.563 69.699 28.747 9.336-2.426 16.215-5.016 25.512-8.516 5.593-2.106 11.937-4.496 19.875-7.23l29.25-10.079-19.075 54.477a96.355 96.355 0 0 1 3.91-.254l31.235-1.414-18.461 25.23c-1.059 1.446-1.328 1.856-1.703 2.422-1.488 2.242-3.34 5.032-28.68 38.867-6.344 8.473-9.512 19.508-8.922 31.079 2.246 43.968-3.148 83.75-16.043 118.234-12.195 32.625-31.093 60.617-56.164 83.2-31.023 27.937-70.582 47.066-117.582 56.847-23.054 4.797-47.812 7.203-73.437 7.203zm0 0"></path>
  </symbol>
  <symbol viewBox="0 0 24 24" xmlns="http://www.w3.org/2000/svg" id="vk">
    <path d="M19.915 13.028c-.388-.49-.277-.708 0-1.146.005-.005 3.208-4.431 3.538-5.932l.002-.001c.164-.547 0-.949-.793-.949h-2.624c-.668 0-.976.345-1.141.731 0 0-1.336 3.198-3.226 5.271-.61.599-.892.791-1.225.791-.164 0-.419-.192-.419-.739V5.949c0-.656-.187-.949-.74-.949H9.161c-.419 0-.668.306-.668.591 0 .622.945.765 1.043 2.515v3.797c0 .832-.151.985-.486.985-.892 0-3.057-3.211-4.34-6.886-.259-.713-.512-1.001-1.185-1.001H.9c-.749 0-.9.345-.9.731 0 .682.892 4.073 4.148 8.553C6.318 17.343 9.374 19 12.154 19c1.671 0 1.875-.368 1.875-1.001 0-2.922-.151-3.198.686-3.198.388 0 1.056.192 2.616 1.667C19.114 18.217 19.407 19 20.405 19h2.624c.748 0 1.127-.368.909-1.094-.499-1.527-3.871-4.668-4.023-4.878z"></path>
  </symbol>
  <symbol viewBox="0 0 24 24" xmlns="http://www.w3.org/2000/svg" id="youtube">
    <path d="M23.469 5.929l.03.196a3.043 3.043 0 0 0-2.068-2.112l-.021-.005c-1.871-.508-9.4-.508-9.4-.508s-7.51-.01-9.4.508A3.044 3.044 0 0 0 .527 6.104l-.005.021c-.699 3.651-.704 8.038.031 11.947l-.031-.198a3.043 3.043 0 0 0 2.068 2.112l.021.005c1.869.509 9.4.509 9.4.509s7.509 0 9.4-.509a3.043 3.043 0 0 0 2.084-2.096l.005-.021c.318-1.698.5-3.652.5-5.648l-.001-.221.001-.23c0-1.997-.182-3.951-.531-5.846zM9.608 15.651V8.358l6.266 3.652z"></path>
  </symbol>
</svg>