<svg width="16" height="16" xmlns="http://www.w3.org/2000/svg" preserveAspectRatio="xMidYMid">
 <defs>
  <style>.cls-2 {
        fill: #008efc;
      }</style>
 </defs>
 <g>
  <title>background</title>
  <rect fill="none" id="canvas_background" height="18" width="18" y="-1" x="-1"/>
 </g>
 <g>
  <title>Layer 1</title>
  <path stroke="null" fill-rule="evenodd" class="cls-2" id="path-1" d="m0,56.124c0,0 0,-12.251 0,-12.251c0,0 16,0 16,0c0,0 0,12.251 0,12.251c0,0 -16,0 -16,0zm14.375,-0.938c0,0 -4.5,-4.468 -4.5,-4.468c0,0 -1.875,1.844 -1.875,1.844c0,0 -1.907,-1.876 -1.907,-1.876c0,0 -4.562,4.5 -4.562,4.5c0,0 12.844,0 12.844,0zm-13.438,-0.782c0,0 4.469,-4.405 4.469,-4.405c0,0 -4.469,-4.406 -4.469,-4.406c0,0 0,8.811 0,8.811zm0.563,-9.594c0,0 6.5,6.438 6.5,6.438c0,0 6.5,-6.438 6.5,-6.438c0,0 -13,0 -13,0zm13.562,0.783c0,0 -4.531,4.468 -4.531,4.468c0,0 4.531,4.438 4.531,4.438c0,0 0,-8.906 0,-8.906zm-2.312,-30.001c-0.146,0.125 -0.297,0.223 -0.453,0.297c-0.157,0.073 -0.349,0.11 -0.578,0.11c0,0 -7.469,0 -7.469,0c-0.23,0 -0.422,-0.037 -0.579,-0.11c-0.156,-0.074 -0.307,-0.172 -0.453,-0.297c-0.146,-0.125 -0.25,-0.276 -0.312,-0.453c-0.063,-0.176 -0.105,-0.36 -0.125,-0.546c0,0 0.031,-13.188 0.031,-13.188c-0.021,-0.188 0.01,-0.37 0.094,-0.547c0.083,-0.177 0.187,-0.328 0.312,-0.454c0.125,-0.125 0.276,-0.223 0.453,-0.296c0.177,-0.073 0.36,-0.11 0.548,-0.11c0,0 7.531,0 7.531,0c0.187,0 0.369,0.037 0.547,0.11c0.176,0.073 0.328,0.171 0.453,0.296c0.125,0.126 0.229,0.277 0.312,0.454c0.083,0.177 0.114,0.359 0.094,0.547c0,0 0.031,13.188 0.031,13.188c-0.021,0.186 -0.062,0.37 -0.125,0.546c-0.062,0.177 -0.167,0.328 -0.312,0.453zm-0.563,-14.36c-0.042,-0.052 -0.078,-0.104 -0.109,-0.156c-0.031,-0.051 -0.078,-0.088 -0.141,-0.109c-0.062,-0.021 -0.125,-0.031 -0.187,-0.031c0,0 -7.531,0 -7.531,0c-0.063,0 -0.125,0.01 -0.188,0.031c-0.063,0.021 -0.109,0.058 -0.141,0.109c-0.031,0.052 -0.068,0.104 -0.109,0.156c-0.042,0.053 -0.052,0.11 -0.031,0.173c0,0 -0.031,1.406 -0.031,1.406c0,0 8.531,0 8.531,0c0,0 -0.032,-1.406 -0.032,-1.406c0.021,-0.063 0.011,-0.12 -0.031,-0.173zm-8.468,2.516c0,0 0.031,7.532 0.031,7.532c0,0 8.468,0 8.468,0c0,0 0.032,-7.532 0.032,-7.532c0,0 -8.531,0 -8.531,0zm8.499,8.5c0,0 -8.468,0 -8.468,0c0,0 -0.031,2.345 -0.031,2.345c0.02,0.061 0.041,0.119 0.062,0.171c0.02,0.052 0.057,0.105 0.109,0.156c0.052,0.053 0.099,0.088 0.141,0.11c0.041,0.02 0.114,0.031 0.219,0.031c0,0 7.469,0 7.469,0c0.104,0 0.176,-0.011 0.218,-0.031c0.042,-0.022 0.089,-0.057 0.141,-0.11c0.052,-0.051 0.088,-0.104 0.109,-0.156c0.021,-0.052 0.042,-0.11 0.063,-0.171c0,0 -0.032,-2.345 -0.032,-2.345zm-3.89,1.719c-0.052,0.042 -0.105,0.078 -0.156,0.11c-0.053,0.031 -0.121,0.046 -0.204,0.046c-0.041,0 -0.099,-0.015 -0.171,-0.046c-0.074,-0.032 -0.125,-0.068 -0.157,-0.11c-0.031,-0.042 -0.062,-0.089 -0.093,-0.14c-0.032,-0.052 -0.037,-0.109 -0.016,-0.172c-0.021,-0.062 -0.016,-0.125 0.016,-0.188c0.031,-0.063 0.062,-0.115 0.093,-0.156c0.032,-0.042 0.083,-0.074 0.157,-0.094c0.072,-0.021 0.13,-0.031 0.171,-0.031c0.083,0 0.151,0.01 0.204,0.031c0.051,0.02 0.104,0.052 0.156,0.094c0.052,0.041 0.083,0.093 0.094,0.156c0.01,0.063 0.025,0.126 0.046,0.188c-0.021,0.063 -0.036,0.12 -0.046,0.172c-0.011,0.051 -0.042,0.098 -0.094,0.14z"/>
 </g>
</svg>