<svg xmlns="http://www.w3.org/2000/svg" xmlns:xlink="http://www.w3.org/1999/xlink" preserveAspectRatio="xMidYMid" width="11" height="16" viewBox="0 0 11 16">
  <defs>
    <style>

      .cls-2 {
        fill: #008efc;
      }
    </style>
  </defs>
  <path d="M5.187,-0.002 C5.895,-0.002 6.567,0.135 7.203,0.404 C7.838,0.675 8.390,1.045 8.859,1.514 C9.328,1.983 9.698,2.530 9.968,3.155 C10.239,3.780 10.375,4.457 10.375,5.186 C10.375,6.207 10.130,7.280 9.640,8.405 C9.151,9.529 8.614,10.561 8.031,11.498 C7.447,12.436 6.901,13.222 6.390,13.857 C5.880,14.494 5.593,14.842 5.531,14.905 C5.531,14.905 5.187,15.311 5.187,15.311 C5.187,15.311 4.844,14.905 4.844,14.905 C4.781,14.842 4.494,14.494 3.984,13.857 C3.473,13.222 2.926,12.436 2.343,11.498 C1.760,10.561 1.223,9.529 0.734,8.405 C0.244,7.280 -0.000,6.207 -0.000,5.186 C-0.000,4.457 0.135,3.780 0.406,3.155 C0.676,2.530 1.047,1.983 1.515,1.514 C1.984,1.045 2.536,0.675 3.172,0.404 C3.807,0.135 4.479,-0.002 5.187,-0.002 C5.187,-0.002 5.187,-0.002 5.187,-0.002 ZM5.187,13.843 C5.458,13.509 5.833,13.019 6.312,12.373 C6.791,11.728 7.260,10.999 7.719,10.186 C8.176,9.373 8.578,8.530 8.922,7.654 C9.265,6.779 9.437,5.956 9.437,5.186 C9.437,4.603 9.323,4.051 9.094,3.529 C8.864,3.009 8.557,2.560 8.172,2.186 C7.786,1.810 7.338,1.509 6.828,1.279 C6.317,1.050 5.770,0.936 5.187,0.936 C4.604,0.936 4.057,1.050 3.547,1.279 C3.036,1.509 2.588,1.810 2.203,2.186 C1.817,2.560 1.510,3.009 1.281,3.529 C1.052,4.051 0.937,4.603 0.937,5.186 C0.937,5.956 1.109,6.779 1.453,7.654 C1.797,8.530 2.198,9.373 2.656,10.186 C3.114,10.999 3.583,11.728 4.062,12.373 C4.541,13.019 4.916,13.509 5.187,13.843 C5.187,13.843 5.187,13.843 5.187,13.843 ZM5.187,2.499 C5.583,2.499 5.953,2.572 6.297,2.717 C6.640,2.863 6.937,3.061 7.187,3.311 C7.437,3.560 7.635,3.858 7.781,4.201 C7.926,4.545 8.000,4.915 8.000,5.311 C8.000,5.707 7.926,6.071 7.781,6.404 C7.635,6.738 7.437,7.035 7.187,7.295 C6.937,7.556 6.640,7.759 6.297,7.905 C5.953,8.050 5.583,8.122 5.187,8.122 C4.791,8.122 4.422,8.050 4.078,7.905 C3.734,7.759 3.437,7.556 3.187,7.295 C2.937,7.035 2.739,6.738 2.593,6.404 C2.447,6.071 2.375,5.707 2.375,5.311 C2.375,4.915 2.447,4.545 2.593,4.201 C2.739,3.858 2.937,3.560 3.187,3.311 C3.437,3.061 3.734,2.863 4.078,2.717 C4.422,2.572 4.791,2.499 5.187,2.499 C5.187,2.499 5.187,2.499 5.187,2.499 ZM5.187,7.187 C5.437,7.187 5.677,7.139 5.906,7.045 C6.135,6.951 6.338,6.817 6.515,6.640 C6.692,6.463 6.828,6.259 6.922,6.029 C7.015,5.800 7.062,5.561 7.062,5.311 C7.062,5.040 7.015,4.790 6.922,4.561 C6.828,4.332 6.692,4.134 6.515,3.967 C6.338,3.800 6.135,3.671 5.906,3.577 C5.677,3.482 5.437,3.436 5.187,3.436 C4.937,3.436 4.697,3.482 4.468,3.577 C4.239,3.671 4.036,3.800 3.859,3.967 C3.682,4.134 3.547,4.332 3.453,4.561 C3.359,4.790 3.312,5.040 3.312,5.311 C3.312,5.561 3.359,5.800 3.453,6.029 C3.547,6.259 3.682,6.463 3.859,6.640 C4.036,6.817 4.239,6.951 4.468,7.045 C4.697,7.139 4.937,7.187 5.187,7.187 C5.187,7.187 5.187,7.187 5.187,7.187 Z" id="path-1" class="cls-2" fill-rule="evenodd"/>
</svg>
